<mxfile host="app.diagrams.net" modified="2021-01-11T09:08:46.954Z" agent="5.0 (Windows NT 10.0; Win64; x64) AppleWebKit/537.36 (KHTML, like Gecko) Chrome/87.0.4280.141 Safari/537.36" etag="0Y07Rt4V0X9guxp8r4mC" version="14.1.8" type="github">
  <diagram id="BZDRyEfWKM44kh9R_EyN" name="Page-1">
    <mxGraphModel dx="2489" dy="748" grid="1" gridSize="10" guides="1" tooltips="1" connect="1" arrows="1" fold="1" page="1" pageScale="1" pageWidth="827" pageHeight="1169" math="0" shadow="0">
      <root>
        <mxCell id="0" />
        <mxCell id="1" parent="0" />
        <mxCell id="MwcgfWwo65XH-absTfN6-9" style="edgeStyle=none;rounded=0;orthogonalLoop=1;jettySize=auto;html=1;exitX=0.5;exitY=0;exitDx=0;exitDy=0;" edge="1" parent="1" source="MwcgfWwo65XH-absTfN6-4">
          <mxGeometry relative="1" as="geometry">
            <mxPoint x="280" y="310" as="targetPoint" />
          </mxGeometry>
        </mxCell>
        <mxCell id="MwcgfWwo65XH-absTfN6-4" value="" style="shape=curlyBracket;whiteSpace=wrap;html=1;rounded=1;" vertex="1" parent="1">
          <mxGeometry x="150" y="310" width="20" height="600" as="geometry" />
        </mxCell>
        <mxCell id="MwcgfWwo65XH-absTfN6-7" value="&lt;b&gt;btr_cur_optimistic_insert&lt;/b&gt;" style="text;html=1;strokeColor=none;fillColor=none;align=center;verticalAlign=middle;whiteSpace=wrap;rounded=0;" vertex="1" parent="1">
          <mxGeometry x="40" y="600" width="40" height="20" as="geometry" />
        </mxCell>
        <mxCell id="MwcgfWwo65XH-absTfN6-8" value="&lt;span style=&quot;color: rgb(51 , 51 , 51) ; font-family: &amp;#34;open sans&amp;#34; , &amp;#34;clear sans&amp;#34; , &amp;#34;helvetica neue&amp;#34; , &amp;#34;helvetica&amp;#34; , &amp;#34;arial&amp;#34; , sans-serif ; font-size: 16px ; text-align: left ; background-color: rgb(255 , 255 , 255)&quot;&gt;mtr_3&lt;/span&gt;" style="text;html=1;strokeColor=none;fillColor=none;align=center;verticalAlign=middle;whiteSpace=wrap;rounded=0;" vertex="1" parent="1">
          <mxGeometry x="190" y="270" width="40" height="20" as="geometry" />
        </mxCell>
        <mxCell id="MwcgfWwo65XH-absTfN6-12" value="&lt;b&gt;trx_undo_reuse_cached&lt;/b&gt;" style="text;html=1;strokeColor=none;fillColor=none;align=center;verticalAlign=middle;whiteSpace=wrap;rounded=0;" vertex="1" parent="1">
          <mxGeometry x="340" y="300" width="40" height="20" as="geometry" />
        </mxCell>
        <mxCell id="MwcgfWwo65XH-absTfN6-16" value="&lt;b&gt;MLOG_UNDO_HDR_REUSE&lt;/b&gt;" style="text;html=1;strokeColor=none;fillColor=none;align=center;verticalAlign=middle;whiteSpace=wrap;rounded=0;" vertex="1" parent="1">
          <mxGeometry x="630" y="300" width="40" height="20" as="geometry" />
        </mxCell>
        <mxCell id="MwcgfWwo65XH-absTfN6-17" style="edgeStyle=none;rounded=0;orthogonalLoop=1;jettySize=auto;html=1;exitX=0.5;exitY=0;exitDx=0;exitDy=0;" edge="1" parent="1">
          <mxGeometry relative="1" as="geometry">
            <mxPoint x="560" y="310" as="targetPoint" />
            <mxPoint x="440" y="310" as="sourcePoint" />
          </mxGeometry>
        </mxCell>
        <mxCell id="MwcgfWwo65XH-absTfN6-18" value="复用insert undo 头部" style="text;html=1;strokeColor=none;fillColor=none;align=center;verticalAlign=middle;whiteSpace=wrap;rounded=0;" vertex="1" parent="1">
          <mxGeometry x="740" y="300" width="130" height="20" as="geometry" />
        </mxCell>
        <mxCell id="MwcgfWwo65XH-absTfN6-21" value="&lt;b&gt;MLOG_2BYTES&lt;/b&gt;" style="text;html=1;strokeColor=none;fillColor=none;align=center;verticalAlign=middle;whiteSpace=wrap;rounded=0;" vertex="1" parent="1">
          <mxGeometry x="620" y="340" width="40" height="20" as="geometry" />
        </mxCell>
        <mxCell id="MwcgfWwo65XH-absTfN6-22" value="&lt;b&gt;MLOG_2BYTES&lt;/b&gt;" style="text;html=1;strokeColor=none;fillColor=none;align=center;verticalAlign=middle;whiteSpace=wrap;rounded=0;" vertex="1" parent="1">
          <mxGeometry x="620" y="370" width="40" height="20" as="geometry" />
        </mxCell>
        <mxCell id="MwcgfWwo65XH-absTfN6-23" value="&lt;b&gt;MLOG_2BYTES&lt;/b&gt;" style="text;html=1;strokeColor=none;fillColor=none;align=center;verticalAlign=middle;whiteSpace=wrap;rounded=0;" vertex="1" parent="1">
          <mxGeometry x="620" y="400" width="40" height="20" as="geometry" />
        </mxCell>
        <mxCell id="MwcgfWwo65XH-absTfN6-24" style="edgeStyle=none;rounded=0;orthogonalLoop=1;jettySize=auto;html=1;exitX=0.5;exitY=0;exitDx=0;exitDy=0;" edge="1" parent="1">
          <mxGeometry relative="1" as="geometry">
            <mxPoint x="280" y="460" as="targetPoint" />
            <mxPoint x="160" y="460" as="sourcePoint" />
          </mxGeometry>
        </mxCell>
        <mxCell id="MwcgfWwo65XH-absTfN6-25" value="&lt;b&gt;trx_undof_page_add_undo_rec_log&lt;/b&gt;" style="text;html=1;strokeColor=none;fillColor=none;align=center;verticalAlign=middle;whiteSpace=wrap;rounded=0;" vertex="1" parent="1">
          <mxGeometry x="370" y="450" width="40" height="20" as="geometry" />
        </mxCell>
        <mxCell id="MwcgfWwo65XH-absTfN6-26" value="&lt;span style=&quot;color: rgb(51 , 51 , 51) ; font-family: &amp;#34;open sans&amp;#34; , &amp;#34;clear sans&amp;#34; , &amp;#34;helvetica neue&amp;#34; , &amp;#34;helvetica&amp;#34; , &amp;#34;arial&amp;#34; , sans-serif ; font-size: 16px ; text-align: left ; background-color: rgb(255 , 255 , 255)&quot;&gt;mtr_2&lt;/span&gt;" style="text;html=1;strokeColor=none;fillColor=none;align=center;verticalAlign=middle;whiteSpace=wrap;rounded=0;" vertex="1" parent="1">
          <mxGeometry x="190" y="430" width="40" height="20" as="geometry" />
        </mxCell>
        <mxCell id="MwcgfWwo65XH-absTfN6-27" style="edgeStyle=none;rounded=0;orthogonalLoop=1;jettySize=auto;html=1;exitX=0.5;exitY=0;exitDx=0;exitDy=0;" edge="1" parent="1">
          <mxGeometry relative="1" as="geometry">
            <mxPoint x="615" y="459.5" as="targetPoint" />
            <mxPoint x="495" y="459.5" as="sourcePoint" />
          </mxGeometry>
        </mxCell>
        <mxCell id="MwcgfWwo65XH-absTfN6-28" value="&lt;b&gt;MLOG_UNDO_INSERT&lt;/b&gt;" style="text;html=1;strokeColor=none;fillColor=none;align=center;verticalAlign=middle;whiteSpace=wrap;rounded=0;" vertex="1" parent="1">
          <mxGeometry x="670" y="450" width="40" height="20" as="geometry" />
        </mxCell>
        <mxCell id="MwcgfWwo65XH-absTfN6-29" value="申请undo记录" style="text;html=1;strokeColor=none;fillColor=none;align=center;verticalAlign=middle;whiteSpace=wrap;rounded=0;" vertex="1" parent="1">
          <mxGeometry x="320" y="280" width="80" height="20" as="geometry" />
        </mxCell>
        <mxCell id="MwcgfWwo65XH-absTfN6-30" value="写undo记录" style="text;html=1;strokeColor=none;fillColor=none;align=center;verticalAlign=middle;whiteSpace=wrap;rounded=0;" vertex="1" parent="1">
          <mxGeometry x="310" y="420" width="80" height="20" as="geometry" />
        </mxCell>
        <mxCell id="MwcgfWwo65XH-absTfN6-31" style="edgeStyle=none;rounded=0;orthogonalLoop=1;jettySize=auto;html=1;exitX=0.5;exitY=0;exitDx=0;exitDy=0;" edge="1" parent="1">
          <mxGeometry relative="1" as="geometry">
            <mxPoint x="280" y="609.5" as="targetPoint" />
            <mxPoint x="160" y="609.5" as="sourcePoint" />
          </mxGeometry>
        </mxCell>
        <mxCell id="MwcgfWwo65XH-absTfN6-32" value="&lt;span style=&quot;color: rgb(51 , 51 , 51) ; font-family: &amp;#34;open sans&amp;#34; , &amp;#34;clear sans&amp;#34; , &amp;#34;helvetica neue&amp;#34; , &amp;#34;helvetica&amp;#34; , &amp;#34;arial&amp;#34; , sans-serif ; font-size: 16px ; text-align: left ; background-color: rgb(255 , 255 , 255)&quot;&gt;mtr_1&lt;/span&gt;" style="text;html=1;strokeColor=none;fillColor=none;align=center;verticalAlign=middle;whiteSpace=wrap;rounded=0;" vertex="1" parent="1">
          <mxGeometry x="200" y="580" width="40" height="20" as="geometry" />
        </mxCell>
        <mxCell id="MwcgfWwo65XH-absTfN6-33" value="&lt;b&gt;page_cur_tuple_insert&lt;/b&gt;" style="text;html=1;strokeColor=none;fillColor=none;align=center;verticalAlign=middle;whiteSpace=wrap;rounded=0;" vertex="1" parent="1">
          <mxGeometry x="340" y="600" width="40" height="20" as="geometry" />
        </mxCell>
        <mxCell id="MwcgfWwo65XH-absTfN6-34" value="do&amp;nbsp; insert" style="text;html=1;strokeColor=none;fillColor=none;align=center;verticalAlign=middle;whiteSpace=wrap;rounded=0;" vertex="1" parent="1">
          <mxGeometry x="320" y="575" width="70" height="20" as="geometry" />
        </mxCell>
        <mxCell id="MwcgfWwo65XH-absTfN6-35" value="&lt;b&gt;MLOG_COMP_REC_INSERT&lt;/b&gt;" style="text;html=1;strokeColor=none;fillColor=none;align=center;verticalAlign=middle;whiteSpace=wrap;rounded=0;" vertex="1" parent="1">
          <mxGeometry x="630" y="600" width="40" height="20" as="geometry" />
        </mxCell>
        <mxCell id="MwcgfWwo65XH-absTfN6-36" style="edgeStyle=none;rounded=0;orthogonalLoop=1;jettySize=auto;html=1;exitX=0.5;exitY=0;exitDx=0;exitDy=0;" edge="1" parent="1">
          <mxGeometry relative="1" as="geometry">
            <mxPoint x="550" y="609.5" as="targetPoint" />
            <mxPoint x="430" y="609.5" as="sourcePoint" />
          </mxGeometry>
        </mxCell>
        <mxCell id="MwcgfWwo65XH-absTfN6-37" style="edgeStyle=none;rounded=0;orthogonalLoop=1;jettySize=auto;html=1;exitX=0.5;exitY=0;exitDx=0;exitDy=0;" edge="1" parent="1">
          <mxGeometry relative="1" as="geometry">
            <mxPoint x="280" y="760" as="targetPoint" />
            <mxPoint x="160" y="760" as="sourcePoint" />
          </mxGeometry>
        </mxCell>
        <mxCell id="MwcgfWwo65XH-absTfN6-38" value="&lt;span style=&quot;color: rgb(51 , 51 , 51) ; font-family: &amp;#34;open sans&amp;#34; , &amp;#34;clear sans&amp;#34; , &amp;#34;helvetica neue&amp;#34; , &amp;#34;helvetica&amp;#34; , &amp;#34;arial&amp;#34; , sans-serif ; font-size: 16px ; text-align: left ; background-color: rgb(255 , 255 , 255)&quot;&gt;mtr_4&lt;/span&gt;" style="text;html=1;strokeColor=none;fillColor=none;align=center;verticalAlign=middle;whiteSpace=wrap;rounded=0;" vertex="1" parent="1">
          <mxGeometry x="200" y="730" width="40" height="20" as="geometry" />
        </mxCell>
        <mxCell id="MwcgfWwo65XH-absTfN6-40" value="&lt;b&gt;trx_prepare_low&lt;/b&gt;" style="text;html=1;strokeColor=none;fillColor=none;align=center;verticalAlign=middle;whiteSpace=wrap;rounded=0;" vertex="1" parent="1">
          <mxGeometry x="320" y="750" width="40" height="20" as="geometry" />
        </mxCell>
        <mxCell id="MwcgfWwo65XH-absTfN6-41" value="&lt;span style=&quot;color: rgb(51 , 51 , 51) ; text-align: left ; background-color: rgb(255 , 255 , 255)&quot;&gt;&lt;font style=&quot;font-size: 12px&quot;&gt;2pc-prepare&lt;/font&gt;&lt;/span&gt;" style="text;html=1;strokeColor=none;fillColor=none;align=center;verticalAlign=middle;whiteSpace=wrap;rounded=0;" vertex="1" parent="1">
          <mxGeometry x="290" y="730" width="100" height="20" as="geometry" />
        </mxCell>
        <mxCell id="MwcgfWwo65XH-absTfN6-42" style="edgeStyle=none;rounded=0;orthogonalLoop=1;jettySize=auto;html=1;exitX=0.5;exitY=0;exitDx=0;exitDy=0;" edge="1" parent="1">
          <mxGeometry relative="1" as="geometry">
            <mxPoint x="290" y="910" as="targetPoint" />
            <mxPoint x="170" y="910" as="sourcePoint" />
          </mxGeometry>
        </mxCell>
        <mxCell id="MwcgfWwo65XH-absTfN6-43" value="&lt;span style=&quot;color: rgb(51 , 51 , 51) ; font-family: &amp;#34;open sans&amp;#34; , &amp;#34;clear sans&amp;#34; , &amp;#34;helvetica neue&amp;#34; , &amp;#34;helvetica&amp;#34; , &amp;#34;arial&amp;#34; , sans-serif ; font-size: 16px ; text-align: left ; background-color: rgb(255 , 255 , 255)&quot;&gt;mtr_5&lt;/span&gt;" style="text;html=1;strokeColor=none;fillColor=none;align=center;verticalAlign=middle;whiteSpace=wrap;rounded=0;" vertex="1" parent="1">
          <mxGeometry x="210" y="880" width="40" height="20" as="geometry" />
        </mxCell>
        <mxCell id="MwcgfWwo65XH-absTfN6-44" value="&lt;b&gt;trx_commit_low&lt;/b&gt;" style="text;html=1;strokeColor=none;fillColor=none;align=center;verticalAlign=middle;whiteSpace=wrap;rounded=0;" vertex="1" parent="1">
          <mxGeometry x="320" y="900" width="40" height="20" as="geometry" />
        </mxCell>
        <mxCell id="MwcgfWwo65XH-absTfN6-45" value="&lt;span style=&quot;color: rgb(51 , 51 , 51) ; text-align: left ; background-color: rgb(255 , 255 , 255)&quot;&gt;2pc-commit&lt;/span&gt;" style="text;html=1;strokeColor=none;fillColor=none;align=center;verticalAlign=middle;whiteSpace=wrap;rounded=0;" vertex="1" parent="1">
          <mxGeometry x="290" y="880" width="100" height="20" as="geometry" />
        </mxCell>
        <mxCell id="MwcgfWwo65XH-absTfN6-46" style="edgeStyle=none;rounded=0;orthogonalLoop=1;jettySize=auto;html=1;exitX=0.5;exitY=0;exitDx=0;exitDy=0;" edge="1" parent="1">
          <mxGeometry relative="1" as="geometry">
            <mxPoint x="520" y="759.5" as="targetPoint" />
            <mxPoint x="400" y="759.5" as="sourcePoint" />
          </mxGeometry>
        </mxCell>
        <mxCell id="MwcgfWwo65XH-absTfN6-47" value="&lt;b&gt;MLOG_2BYTES&lt;/b&gt;" style="text;html=1;strokeColor=none;fillColor=none;align=center;verticalAlign=middle;whiteSpace=wrap;rounded=0;" vertex="1" parent="1">
          <mxGeometry x="570" y="750" width="40" height="20" as="geometry" />
        </mxCell>
        <mxCell id="MwcgfWwo65XH-absTfN6-48" value="&lt;b&gt;MLOG_1BYTES&lt;/b&gt;" style="text;html=1;strokeColor=none;fillColor=none;align=center;verticalAlign=middle;whiteSpace=wrap;rounded=0;" vertex="1" parent="1">
          <mxGeometry x="570" y="780" width="40" height="20" as="geometry" />
        </mxCell>
        <mxCell id="MwcgfWwo65XH-absTfN6-50" value="" style="endArrow=classic;html=1;" edge="1" parent="1">
          <mxGeometry width="50" height="50" relative="1" as="geometry">
            <mxPoint x="639.5" y="317" as="sourcePoint" />
            <mxPoint x="639.5" y="340" as="targetPoint" />
          </mxGeometry>
        </mxCell>
        <mxCell id="MwcgfWwo65XH-absTfN6-52" value="" style="endArrow=classic;html=1;" edge="1" parent="1">
          <mxGeometry width="50" height="50" relative="1" as="geometry">
            <mxPoint x="589.5" y="770" as="sourcePoint" />
            <mxPoint x="590" y="780" as="targetPoint" />
          </mxGeometry>
        </mxCell>
        <mxCell id="MwcgfWwo65XH-absTfN6-53" value="&lt;b&gt;MLOG_4BYTES&lt;/b&gt;" style="text;html=1;strokeColor=none;fillColor=none;align=center;verticalAlign=middle;whiteSpace=wrap;rounded=0;" vertex="1" parent="1">
          <mxGeometry x="570" y="800" width="40" height="20" as="geometry" />
        </mxCell>
        <mxCell id="MwcgfWwo65XH-absTfN6-54" value="&lt;b&gt;MLOG_4BYTES&lt;/b&gt;" style="text;html=1;strokeColor=none;fillColor=none;align=center;verticalAlign=middle;whiteSpace=wrap;rounded=0;" vertex="1" parent="1">
          <mxGeometry x="570" y="820" width="40" height="20" as="geometry" />
        </mxCell>
        <mxCell id="MwcgfWwo65XH-absTfN6-55" value="&lt;b&gt;MLOG_4BYTES&lt;/b&gt;" style="text;html=1;strokeColor=none;fillColor=none;align=center;verticalAlign=middle;whiteSpace=wrap;rounded=0;" vertex="1" parent="1">
          <mxGeometry x="570" y="840" width="40" height="20" as="geometry" />
        </mxCell>
        <mxCell id="MwcgfWwo65XH-absTfN6-56" value="&lt;b&gt;MLOG_WRITE_STRING&lt;/b&gt;" style="text;html=1;strokeColor=none;fillColor=none;align=center;verticalAlign=middle;whiteSpace=wrap;rounded=0;" vertex="1" parent="1">
          <mxGeometry x="570" y="860" width="40" height="20" as="geometry" />
        </mxCell>
        <mxCell id="MwcgfWwo65XH-absTfN6-57" style="edgeStyle=none;rounded=0;orthogonalLoop=1;jettySize=auto;html=1;exitX=0.5;exitY=0;exitDx=0;exitDy=0;" edge="1" parent="1">
          <mxGeometry relative="1" as="geometry">
            <mxPoint x="510" y="910" as="targetPoint" />
            <mxPoint x="390" y="910" as="sourcePoint" />
          </mxGeometry>
        </mxCell>
        <mxCell id="MwcgfWwo65XH-absTfN6-58" value="&lt;b&gt;MLOG_2BYTES&lt;/b&gt;" style="text;html=1;strokeColor=none;fillColor=none;align=center;verticalAlign=middle;whiteSpace=wrap;rounded=0;" vertex="1" parent="1">
          <mxGeometry x="550" y="900" width="40" height="20" as="geometry" />
        </mxCell>
        <mxCell id="MwcgfWwo65XH-absTfN6-59" value="&lt;b&gt;MLOG_4BYTES&lt;/b&gt;" style="text;html=1;strokeColor=none;fillColor=none;align=center;verticalAlign=middle;whiteSpace=wrap;rounded=0;" vertex="1" parent="1">
          <mxGeometry x="550" y="930" width="40" height="20" as="geometry" />
        </mxCell>
        <mxCell id="MwcgfWwo65XH-absTfN6-60" value="" style="endArrow=classic;html=1;" edge="1" parent="1">
          <mxGeometry width="50" height="50" relative="1" as="geometry">
            <mxPoint x="569" y="910" as="sourcePoint" />
            <mxPoint x="569" y="933" as="targetPoint" />
          </mxGeometry>
        </mxCell>
        <mxCell id="MwcgfWwo65XH-absTfN6-61" value="写入TRX_UNDO_STATE" style="text;html=1;strokeColor=none;fillColor=none;align=center;verticalAlign=middle;whiteSpace=wrap;rounded=0;" vertex="1" parent="1">
          <mxGeometry x="660" y="750" width="150" height="20" as="geometry" />
        </mxCell>
        <mxCell id="MwcgfWwo65XH-absTfN6-62" value="写入TRX_UNDO_FLAGS" style="text;html=1;strokeColor=none;fillColor=none;align=center;verticalAlign=middle;whiteSpace=wrap;rounded=0;" vertex="1" parent="1">
          <mxGeometry x="660" y="780" width="150" height="20" as="geometry" />
        </mxCell>
        <mxCell id="MwcgfWwo65XH-absTfN6-63" value="undo 写入 xid，设置undo的xid" style="text;html=1;strokeColor=none;fillColor=none;align=center;verticalAlign=middle;whiteSpace=wrap;rounded=0;" vertex="1" parent="1">
          <mxGeometry x="660" y="800" width="180" height="20" as="geometry" />
        </mxCell>
        <mxCell id="MwcgfWwo65XH-absTfN6-64" value="设置事务结束时的undo状态" style="text;html=1;strokeColor=none;fillColor=none;align=center;verticalAlign=middle;whiteSpace=wrap;rounded=0;" vertex="1" parent="1">
          <mxGeometry x="647" y="900" width="180" height="20" as="geometry" />
        </mxCell>
        <mxCell id="MwcgfWwo65XH-absTfN6-65" value="设置binlog的位点" style="text;html=1;strokeColor=none;fillColor=none;align=center;verticalAlign=middle;whiteSpace=wrap;rounded=0;" vertex="1" parent="1">
          <mxGeometry x="670" y="930" width="105" height="20" as="geometry" />
        </mxCell>
      </root>
    </mxGraphModel>
  </diagram>
</mxfile>
